<svg width="122" height="41" viewBox="0 0 122 41" fill="none" xmlns="http://www.w3.org/2000/svg">
<g clip-path="url(#clip0)">
<path d="M49.9871 22.0919L45.4368 28.4887L40.9525 22.0919H36.666V40.1611H41.4141V30.533L44.1179 34.2919H46.8217L49.5255 30.533V40.1611H54.2736V22.0919H49.9871Z" fill="black"/>
<path d="M67.6606 25.9827V22.0919H56.4498V40.1611H67.6606V36.2703H61.1979V32.9071H66.9352V29.0162H61.1979V25.9827H67.6606Z" fill="black"/>
<path d="M33.3687 0.593506V5.34161H40.6228L33.3687 17.8054V18.5967H48.0747V13.9146H41.0844L48.0747 1.78053V0.593506H33.3687Z" fill="black"/>
<path d="M49.8552 0.593506C49.8552 0.593506 49.8552 9.29837 49.8552 11.8043C49.8552 14.3103 51.9654 18.6627 56.9773 18.6627C61.9892 18.6627 64.0995 14.3762 64.0995 11.8043C64.0995 9.23242 64.0995 0.593506 64.0995 0.593506H59.3514C59.3514 0.593506 59.3514 11.4746 59.3514 11.8043C59.3514 12.134 58.8898 13.8486 56.9773 13.8486C55.0649 13.8486 54.6033 12.2 54.6033 11.8043C54.6033 11.4746 54.6033 0.593506 54.6033 0.593506H49.8552Z" fill="black"/>
<path d="M10.6833 30.467V33.6324H14.1784C13.3871 34.7535 12.1341 35.413 10.6833 35.413C8.30922 35.413 6.39679 33.5005 6.39679 31.1265C6.39679 28.7524 8.30922 26.84 10.6833 26.84C12.266 26.84 13.6508 27.6973 14.3762 28.9503L18.4649 26.6422C16.8822 23.9384 13.9806 22.1578 10.6833 22.1578C5.67138 22.1578 1.64868 26.1805 1.64868 31.1924C1.64868 36.2043 5.67138 40.227 10.6833 40.227C15.6952 40.227 19.7179 36.2043 19.7179 31.1924C19.7179 30.9286 19.7179 30.533 19.7179 30.533H10.6833V30.467Z" fill="black"/>
<path d="M77.3546 27.5654H82.1027C82.1027 27.5654 82.5644 21.6302 75.4422 21.6302C68.7816 21.6302 68.9795 27.1697 68.9795 27.1697C68.9795 30.8627 71.4195 31.7859 73.0681 32.3794C74.6508 33.0389 77.7503 33.0389 77.7503 34.6875C77.7503 36.3362 75.7719 36.2702 75.7719 36.2702C73.6617 36.2702 73.6616 34.3578 73.6616 34.3578H68.7157C68.7157 39.04 72.6065 40.6227 75.3762 40.6227C79.0692 40.6227 82.6303 39.1059 82.6303 34.6875C82.6303 30.9286 79.9925 29.7416 78.146 29.214C75.2444 28.4227 73.7935 28.2248 73.7935 26.9719C73.7935 26.1146 74.6508 25.7848 75.5081 25.7848C76.6952 25.8508 77.3546 26.7081 77.3546 27.5654Z" fill="black"/>
<path d="M24.4001 0.593506L13.9806 18.5967H19.1244L20.4433 16.2886H26.4444V18.5967H31.1925V0.593506H24.4001ZM26.5103 12.3319H22.8173L26.5103 5.93513V12.3319Z" fill="black"/>
<path d="M27.6313 22.0919L17.2778 40.1611H22.3557L23.6746 37.853H29.6757V40.1611H34.4238V22.0919H27.6313ZM29.7416 33.8303H26.0486L29.7416 27.4335V33.8303Z" fill="black"/>
<path d="M77.8162 12.0681C77.8162 12.0681 80.7179 10.5513 80.7179 6.99026C80.7179 3.42918 77.9481 0.593506 74.3211 0.593506C70.6281 0.593506 66.2757 0.593506 66.2757 0.593506V18.6627H71.2216V13.1232H73.0022L75.9698 18.6627H81.5092L77.8162 12.0681ZM73.3319 8.9027H71.1557V5.01188H73.2C73.2 5.01188 75.64 4.94594 75.64 6.99026C75.64 8.96864 73.3319 8.9027 73.3319 8.9027Z" fill="black"/>
<path d="M113.361 24.8616L120.945 20.3773L87.6422 0.593506V40.1611L111.185 26.3124L103.535 21.7622L95.7535 26.2465V14.4422L113.361 24.8616ZM113.295 18.1351C114.35 18.1351 115.208 18.9924 115.208 20.0476C115.208 21.1027 114.35 21.96 113.295 21.96C112.24 21.96 111.383 21.1027 111.383 20.0476C111.383 18.9924 112.24 18.1351 113.295 18.1351Z" fill="#1B51E8"/>
</g>
<defs>
<clipPath id="clip0">
<rect width="122" height="40.8865" fill="white"/>
</clipPath>
</defs>
</svg>
