<svg id="Capa_1" enable-background="new 0 0 512 512" height="512" viewBox="0 0 512 512" width="512" xmlns="http://www.w3.org/2000/svg"><g><path d="m474.044 317.661-58.871-88.026c-1.048-18.569-4.932-36.717-11.562-54.006-2.225-5.8-7.794-9.629-14.006-9.629h-15.771v-46c0-8.284-6.716-15-15-15h-19.428c-.642-1.646-1.32-3.28-2.033-4.899l13.74-13.74c5.854-5.852 5.858-15.357 0-21.213l-42.427-42.426c-5.857-5.857-15.355-5.857-21.213 0l-13.739 13.739c-1.62-.714-3.253-1.392-4.9-2.034v-19.427c0-8.284-6.716-15-15-15h-60c-8.284 0-15 6.716-15 15v19.428c-1.646.642-3.28 1.32-4.899 2.033l-13.74-13.739c-5.857-5.857-15.355-5.857-21.213 0l-42.426 42.425c-5.854 5.852-5.858 15.357 0 21.213l13.74 13.74c-.713 1.619-1.391 3.253-2.032 4.899h-19.429c-8.284 0-15 6.716-15 15v46h-12.5c-6.216 0-11.788 3.834-14.01 9.64-36.029 94.17 12.362 200.115 108.15 234.106v87.255c0 8.284 6.716 15 15 15h171c8.284 0 15-6.716 15-15v-77h44c8.284 0 15-6.716 15-15v-64h46.1c11.965 0 19.129-13.379 12.469-23.339zm-370.209-182.661h15.183c6.697 0 12.583-4.439 14.423-10.879 1.952-6.833 4.706-13.47 8.185-19.725 3.256-5.855 2.234-13.16-2.503-17.896l-10.746-10.746 21.213-21.213 10.746 10.745c4.736 4.738 12.041 5.76 17.896 2.503 6.256-3.479 12.892-6.232 19.724-8.184 6.439-1.839 10.88-7.726 10.88-14.423v-15.182h30v15.183c0 6.698 4.44 12.584 10.881 14.423 6.832 1.951 13.468 4.705 19.724 8.184 5.854 3.255 13.159 2.234 17.896-2.503l10.745-10.745 21.214 21.213-10.747 10.745c-4.737 4.737-5.759 12.041-2.503 17.896 3.479 6.256 6.232 12.892 8.184 19.724 1.839 6.439 7.726 10.88 14.423 10.88h15.183v31h-62.164c10.563-38.281-18.365-76-57.836-76-39.217 0-68.449 37.415-57.8 76h-62.2v-31zm94.628 31c-12.543-19.884 1.772-46 25.372-46 23.592 0 37.932 26.139 25.359 46zm202.013 145c-8.284 0-15 6.716-15 15v64h-44c-8.284 0-15 6.716-15 15v77h-141v-83.21c0-6.712-4.459-12.606-10.917-14.434-79.846-22.587-127.329-107.429-102.531-188.356h306.892c3.862 12.596 6.032 25.663 6.464 38.977.245 7.554 1.379 4.766 48.115 76.023z"/></g></svg>