<svg width="213" height="60" viewBox="0 0 213 60" fill="none" xmlns="http://www.w3.org/2000/svg">
<rect y="12" width="25" height="41" rx="1" fill="#FFE600"/>
<rect x="77" y="12" width="25" height="41" rx="1" fill="black"/>
<path d="M12.5 50.4C9.56667 50.4 7.2 49.55 5.4 47.85C3.6 46.1167 2.7 43.8333 2.7 41V37.55C2.7 37.3833 2.75 37.25 2.85 37.15C2.98333 37.0167 3.13333 36.95 3.3 36.95H9.15C9.31667 36.95 9.45 37.0167 9.55 37.15C9.68333 37.25 9.75 37.3833 9.75 37.55V41.1C9.75 42.0667 10 42.85 10.5 43.45C11 44.05 11.6667 44.35 12.5 44.35C13.3667 44.35 14.05 44.05 14.55 43.45C15.0833 42.85 15.35 42.0667 15.35 41.1V15.6C15.35 15.4333 15.4 15.3 15.5 15.2C15.6333 15.0667 15.7833 15 15.95 15H21.8C21.9667 15 22.1 15.0667 22.2 15.2C22.3333 15.3 22.4 15.4333 22.4 15.6V41C22.4 43.8333 21.4833 46.1167 19.65 47.85C17.85 49.55 15.4667 50.4 12.5 50.4ZM39.9574 50.4C37.5574 50.4 35.6408 49.7 34.2074 48.3C32.8074 46.9 32.1074 45.05 32.1074 42.75V32C32.1074 29.7333 32.8241 27.8833 34.2574 26.45C35.6908 25.0167 37.5908 24.3 39.9574 24.3C42.3574 24.3 44.2741 25.0167 45.7074 26.45C47.1408 27.8833 47.8574 29.7333 47.8574 32V42.75C47.8574 45.05 47.1408 46.9 45.7074 48.3C44.2741 49.7 42.3574 50.4 39.9574 50.4ZM39.9574 47.25C41.2241 47.25 42.2574 46.8167 43.0574 45.95C43.8908 45.0833 44.3074 43.9333 44.3074 42.5V32.2C44.3074 30.7667 43.8908 29.6167 43.0574 28.75C42.2574 27.85 41.2241 27.4 39.9574 27.4C38.6908 27.4 37.6574 27.85 36.8574 28.75C36.0574 29.6167 35.6574 30.7667 35.6574 32.2V42.5C35.6574 43.9333 36.0574 45.0833 36.8574 45.95C37.6574 46.8167 38.6908 47.25 39.9574 47.25ZM56.8758 60C56.8091 60 56.7424 59.95 56.6758 59.85C56.6091 59.75 56.5758 59.6333 56.5758 59.5V57.5C56.5758 57.1667 56.7424 57 57.0758 57C58.1091 56.9667 58.9091 56.7667 59.4758 56.4C60.0758 56.0333 60.5591 55.3833 60.9258 54.45C61.2924 53.5167 61.6591 52.0833 62.0258 50.15C62.0591 50.0833 62.0591 50.0333 62.0258 50C62.0258 49.9333 62.0258 49.8833 62.0258 49.85L55.6758 25.25L55.6258 25.1C55.6258 24.8333 55.7924 24.7 56.1258 24.7H58.8258C59.1591 24.7 59.3424 24.85 59.3758 25.15L63.7758 44.8C63.8091 44.9 63.8424 44.95 63.8758 44.95C63.9091 44.95 63.9424 44.9 63.9758 44.8L68.3258 25.15C68.3924 24.85 68.5758 24.7 68.8758 24.7L71.6758 24.75C71.8424 24.75 71.9591 24.8 72.0258 24.9C72.1258 25 72.1424 25.1333 72.0758 25.3L65.1258 52.2C64.5258 54.4333 63.9258 56.0833 63.3258 57.15C62.7591 58.2167 62.0091 58.95 61.0758 59.35C60.1424 59.7833 58.8258 60 57.1258 60H56.8758ZM117.251 26.85C117.251 27.1833 117.084 27.35 116.751 27.35H112.951C112.817 27.35 112.751 27.4167 112.751 27.55V42.85C112.751 44.3833 113.017 45.45 113.551 46.05C114.084 46.6167 114.901 46.8833 116.001 46.85H116.501C116.834 46.85 117.001 47.0167 117.001 47.35V49.5C117.001 49.8333 116.834 50 116.501 50H115.251C113.284 50 111.784 49.5833 110.751 48.75C109.751 47.8833 109.251 46.2667 109.251 43.9V27.55C109.251 27.4167 109.184 27.35 109.051 27.35H107.101C106.767 27.35 106.601 27.1833 106.601 26.85V25.2C106.601 24.8667 106.767 24.7 107.101 24.7H109.051C109.184 24.7 109.251 24.6333 109.251 24.5V18.9C109.251 18.5667 109.417 18.4 109.751 18.4H112.251C112.584 18.4 112.751 18.5667 112.751 18.9V24.5C112.751 24.6333 112.817 24.7 112.951 24.7H116.751C117.084 24.7 117.251 24.8667 117.251 25.2V26.85ZM138.231 25.2C138.231 24.8667 138.398 24.7 138.731 24.7H141.281C141.614 24.7 141.781 24.8667 141.781 25.2V49.5C141.781 49.8333 141.614 50 141.281 50H138.731C138.398 50 138.231 49.8333 138.231 49.5V47.8C138.231 47.7 138.198 47.65 138.131 47.65C138.098 47.65 138.048 47.6833 137.981 47.75C136.948 49.4833 135.281 50.35 132.981 50.35C130.981 50.35 129.381 49.75 128.181 48.55C127.014 47.3167 126.431 45.4667 126.431 43V25.2C126.431 24.8667 126.598 24.7 126.931 24.7H129.481C129.814 24.7 129.981 24.8667 129.981 25.2V42.2C129.981 43.8667 130.314 45.1333 130.981 46C131.681 46.8333 132.681 47.25 133.981 47.25C135.314 47.25 136.348 46.7667 137.081 45.8C137.848 44.8333 138.231 43.5167 138.231 41.85V25.2ZM164.372 15.5C164.372 15.1667 164.539 15 164.872 15H167.422C167.756 15 167.922 15.1667 167.922 15.5V49.5C167.922 49.8333 167.756 50 167.422 50H164.872C164.539 50 164.372 49.8333 164.372 49.5V48.4C164.372 48.3333 164.339 48.2833 164.272 48.25C164.239 48.2167 164.189 48.2333 164.122 48.3C162.856 49.7 161.256 50.4 159.322 50.4C157.189 50.4 155.489 49.7 154.222 48.3C152.956 46.8667 152.322 45.0167 152.322 42.75V31.95C152.322 29.6167 152.956 27.7667 154.222 26.4C155.489 25 157.189 24.3 159.322 24.3C161.289 24.3 162.889 25.0167 164.122 26.45C164.189 26.5167 164.239 26.5333 164.272 26.5C164.339 26.4667 164.372 26.4167 164.372 26.35V15.5ZM160.172 47.3C161.406 47.3 162.406 46.8667 163.172 46C163.972 45.1 164.372 43.95 164.372 42.55V32.2C164.372 30.7667 163.972 29.6167 163.172 28.75C162.406 27.85 161.406 27.4 160.172 27.4C158.906 27.4 157.856 27.85 157.022 28.75C156.222 29.6167 155.822 30.7667 155.822 32.2V42.55C155.822 43.95 156.222 45.1 157.022 46C157.856 46.8667 158.906 47.3 160.172 47.3ZM181.165 20.1C180.332 20.1 179.648 19.8333 179.115 19.3C178.615 18.7667 178.365 18.1 178.365 17.3C178.365 16.4667 178.615 15.8 179.115 15.3C179.648 14.7667 180.332 14.5 181.165 14.5C181.965 14.5 182.615 14.7667 183.115 15.3C183.648 15.8 183.915 16.4667 183.915 17.3C183.915 18.1 183.648 18.7667 183.115 19.3C182.615 19.8333 181.965 20.1 181.165 20.1ZM179.915 50C179.582 50 179.415 49.8333 179.415 49.5V25.2C179.415 24.8667 179.582 24.7 179.915 24.7H182.465C182.798 24.7 182.965 24.8667 182.965 25.2V49.5C182.965 49.8333 182.798 50 182.465 50H179.915ZM201.715 50.4C199.315 50.4 197.399 49.7 195.965 48.3C194.565 46.9 193.865 45.05 193.865 42.75V32C193.865 29.7333 194.582 27.8833 196.015 26.45C197.449 25.0167 199.349 24.3 201.715 24.3C204.115 24.3 206.032 25.0167 207.465 26.45C208.899 27.8833 209.615 29.7333 209.615 32V42.75C209.615 45.05 208.899 46.9 207.465 48.3C206.032 49.7 204.115 50.4 201.715 50.4ZM201.715 47.25C202.982 47.25 204.015 46.8167 204.815 45.95C205.649 45.0833 206.065 43.9333 206.065 42.5V32.2C206.065 30.7667 205.649 29.6167 204.815 28.75C204.015 27.85 202.982 27.4 201.715 27.4C200.449 27.4 199.415 27.85 198.615 28.75C197.815 29.6167 197.415 30.7667 197.415 32.2V42.5C197.415 43.9333 197.815 45.0833 198.615 45.95C199.415 46.8167 200.449 47.25 201.715 47.25Z" fill="black"/>
<path d="M89.284 50.4C87.3507 50.4 85.6507 50.0167 84.184 49.25C82.7173 48.4833 81.584 47.4167 80.784 46.05C79.984 44.65 79.584 43.05 79.584 41.25V39.8C79.584 39.6333 79.634 39.5 79.734 39.4C79.8673 39.2667 80.0173 39.2 80.184 39.2H85.934C86.1007 39.2 86.234 39.2667 86.334 39.4C86.4673 39.5 86.534 39.6333 86.534 39.8V40.9C86.534 41.9333 86.8007 42.7667 87.334 43.4C87.8673 44.0333 88.534 44.35 89.334 44.35C90.134 44.35 90.8007 44.05 91.334 43.45C91.8673 42.85 92.134 42.0667 92.134 41.1C92.134 40.1 91.8007 39.25 91.134 38.55C90.4673 37.8167 89.1673 36.75 87.234 35.35C85.5673 34.15 84.2173 33.0833 83.184 32.15C82.1507 31.2167 81.2673 30.0667 80.534 28.7C79.8007 27.3333 79.434 25.75 79.434 23.95C79.434 21.1167 80.3173 18.85 82.084 17.15C83.8507 15.45 86.184 14.6 89.084 14.6C92.0173 14.6 94.3673 15.4833 96.134 17.25C97.934 19.0167 98.834 21.3333 98.834 24.2V25.4C98.834 25.5667 98.7673 25.7167 98.634 25.85C98.534 25.95 98.4007 26 98.234 26H92.484C92.3173 26 92.1673 25.95 92.034 25.85C91.934 25.7167 91.884 25.5667 91.884 25.4V24.05C91.884 23.0167 91.6173 22.2 91.084 21.6C90.584 20.9667 89.9173 20.65 89.084 20.65C88.284 20.65 87.634 20.95 87.134 21.55C86.634 22.1167 86.384 22.9167 86.384 23.95C86.384 24.95 86.7007 25.8333 87.334 26.6C87.9673 27.3667 89.2173 28.4333 91.084 29.8C93.1507 31.3333 94.7007 32.5833 95.734 33.55C96.8007 34.4833 97.6173 35.5333 98.184 36.7C98.784 37.8333 99.084 39.2 99.084 40.8C99.084 43.7333 98.184 46.0667 96.384 47.8C94.584 49.5333 92.2173 50.4 89.284 50.4Z" fill="white"/>
</svg>
