<?xml version="1.0" encoding="iso-8859-1"?>
<!-- Generator: Adobe Illustrator 19.0.0, SVG Export Plug-In . SVG Version: 6.00 Build 0)  -->
<svg version="1.1" id="Capa_1" xmlns="http://www.w3.org/2000/svg" xmlns:xlink="http://www.w3.org/1999/xlink" x="0px" y="0px"
	 viewBox="0 0 512 512" style="enable-background:new 0 0 512 512;" xml:space="preserve">
<g>
	<g>
		<path d="M256,0C114.848,0,0,114.848,0,256s114.848,256,256,256s256-114.848,256-256S397.152,0,256,0z M256,480
			C132.512,480,32,379.52,32,256S132.512,32,256,32s224,100.48,224,224S379.488,480,256,480z"/>
	</g>
</g>
<g>
	<g>
		<path d="M438.016,294.336c-3.008-4-7.744-6.336-12.736-6.336H86.72c-4.992,0-9.728,2.336-12.736,6.336
			c-3.04,4-4,9.184-2.656,14.016C94.464,390.56,170.4,448,256,448s161.536-57.44,184.672-139.648
			C442.016,303.52,441.056,298.336,438.016,294.336z M256,416c-64.032,0-121.568-38.56-146.624-96h293.248
			C377.568,377.44,320.032,416,256,416z"/>
	</g>
</g>
<g>
	<g>
		<path d="M377.568,227.2L330.656,192l46.944-35.2c7.072-5.312,8.512-15.328,3.232-22.4c-5.344-7.104-15.36-8.48-22.4-3.2l-64,48
			c-4.064,3.008-6.432,7.776-6.432,12.8s2.368,9.792,6.4,12.8l64,48c2.88,2.144,6.272,3.2,9.6,3.2c4.832,0,9.664-2.208,12.8-6.4
			C386.08,242.528,384.64,232.512,377.568,227.2z"/>
	</g>
</g>
<g>
	<g>
		<path d="M217.6,179.2l-64-48c-7.008-5.248-17.024-3.872-22.4,3.2c-5.28,7.072-3.872,17.088,3.2,22.4l46.944,35.2L134.4,227.2
			c-7.072,5.312-8.48,15.328-3.2,22.4c3.136,4.192,7.968,6.4,12.8,6.4c3.328,0,6.72-1.056,9.6-3.2l64-48
			c4.032-3.008,6.4-7.776,6.4-12.8S221.632,182.208,217.6,179.2z"/>
	</g>
</g>
<g>
</g>
<g>
</g>
<g>
</g>
<g>
</g>
<g>
</g>
<g>
</g>
<g>
</g>
<g>
</g>
<g>
</g>
<g>
</g>
<g>
</g>
<g>
</g>
<g>
</g>
<g>
</g>
<g>
</g>
</svg>
